<?xml version="1.0" encoding="iso-8859-1"?>
<!-- Uploaded to: SVG Repo, www.svgrepo.com, Generator: SVG Repo Mixer Tools -->
<!DOCTYPE svg PUBLIC "-//W3C//DTD SVG 1.1//EN" "http://www.w3.org/Graphics/SVG/1.1/DTD/svg11.dtd">
<svg fill="#000000" version="1.1" id="Capa_1" xmlns="http://www.w3.org/2000/svg" xmlns:xlink="http://www.w3.org/1999/xlink" 
	 width="800px" height="800px" viewBox="0 0 235.485 235.484"
	 xml:space="preserve">
<g>
	<g>
		<path d="M233.763,84.993c-0.705-1.296-1.471-2.544-2.873-4.853c-1.619-2.699-3.575-5.965-6.035-10.74
			c-1.143-2.174-3.795-3.124-5.995-2.204c-3.09,1.222-13.032,2.621-20.398-1.477c-1.863-1.076-3.711-2.184-5.658-3.392
			c-4.063-2.464-7.898-4.787-12.358-6.482c0.132-5.496,1.442-11.84,1.871-13.615c1.688-4.412,0.513-6.861-0.753-8.107
			c-1.143-1.154-2.741-1.721-4.865-1.721c-0.485,0-2.108,0.164-2.569,0.322c-1.887,0.597-3.795,1.311-5.642,2.126
			c-11.525,5.096-20.302,13.505-23.812,17.178c-6.119,0.706-12.299,2.134-18.431,4.248c-12.619-4.248-30.634-9.83-48.199-13.537
			c-0.912-0.202-1.839-0.383-2.775-0.569c-1.809-0.361-3.626-0.699-5.412-1.02c-2.054-0.373-4.055-0.709-6.049-0.99
			c-0.437-0.072-0.835-0.118-1.25-0.165c-5.458-0.771-10.686-1.296-15.286-1.296c-5.344,0-9.46,0.66-12.788,1.687
			c-0.535,0.165-0.996,0.383-1.503,0.563c-1.003,0.387-1.961,0.785-2.775,1.25c-0.307,0.172-0.713,0.274-1.012,0.471
			c-0.19,0.126-0.275,0.336-0.467,0.479c-1.649,1.176-2.897,2.51-3.779,3.963c-0.168,0.293-0.361,0.583-0.507,0.882
			c-1.072,2.07-1.601,4.31-1.733,6.482c0.032,0.247,0.216,1.964,0.737,4.524c0.092,0.493,0.106,0.908,0.228,1.429
			C9.776,64.837,7.805,72.508,9.033,79.09c0.321,0.886,7.911,22.003,25.728,30.308c8.204,3.815,17.082,4.344,26.571,1.523
			c1.84,2.216,5.23,5.189,9.606,8.019c-1.433,10.604-0.114,20.991,4.134,30.528c8.754,19.761,32,33.41,49.309,36.224
			c0.461,0.177,2.216,1.808,4.265,6.921c1.41,3.206,4.696,5.298,8.323,5.298c1.29,0,2.544-0.253,3.803-0.79l19.624-8.716
			c3.467-1.555,5.583-5.037,5.467-8.64c3.903-1.419,7.537-3.038,11.064-4.905c1.679,1.579,3.947,2.488,6.331,2.488
			c0.017,0,0.017,0,0.017,0c1.267,0,2.528-0.269,3.755-0.789l19.58-8.716c4.501-1.984,6.692-7.078,4.961-11.582
			c-0.151-0.433-0.368-0.821-0.629-1.174c-3.603-4.761-3.603-6.677-3.646-6.677l1.178-2.601c4.645-10.396,9.462-21.167,11.518-32.42
			c0.901-4.972,3.923-11.746,9.413-14.463c2.008-0.966,4.444-2.449,5.494-5.148C235.963,91.345,235.575,88.381,233.763,84.993z
			 M61.478,100.904c-8.241,3.107-15.847,3.107-22.646-0.062c-13.984-6.5-20.562-24.179-20.646-24.179
			c-0.521-2.959,2.376-5.34,8.279-7.175c0.827,2.196,1.809,4.396,2.967,6.562c0.813,1.513,1.647,3.023,2.637,4.508
			c0.368,0.547,0.797,1.072,1.188,1.597c1.128,1.541,2.354,3.018,3.727,4.412c0.505,0.495,1.042,0.982,1.555,1.469
			c0.743,0.659,1.356,1.415,2.154,2.028c0.852,0.659,1.795,1.13,2.699,1.687c0.431,0.261,0.843,0.547,1.289,0.816
			c2.36,1.318,4.814,2.426,7.421,3.11c0.03,0.014,0.046,0.014,0.076,0.014c2.637,0.717,5.436,0.998,8.333,1.086
			c0.407,0.014,0.705,0.148,1.12,0.148c1.072,0,2.176-0.056,3.342-0.148c0.521,1.617,1.371,3.557,2.422,5.597
			c0.274,0.493,0.597,0.966,0.904,1.491c0.345,0.597,0.667,1.168,1.066,1.789c-1.327-1.491-2.078-2.607-2.078-2.621
			C66.117,100.984,63.632,100.103,61.478,100.904z M225.299,90.447c-8.66,4.294-13.216,13.82-14.559,21.288
			c-1.855,10.103-6.424,20.354-10.992,30.564l-1.026,2.244c-1.787,3.919-0.553,8.805,3.703,14.876l-18.859,8.668l-1.402-2
			c-1.398-1.991-4.02-2.576-6.144-1.455l-2.42,1.335c-3.863,2.12-7.707,3.799-12.059,5.342l-2.593,0.897
			c-2.276,0.813-3.587,3.182-3.038,5.551l0.686,2.008l-19.42,8.624c-3.029-7.338-6.664-11.261-11.133-11.999
			c-15.172-2.444-35.141-14.643-42.286-30.765c-4.071-9.129-4.785-19.264-2.547-29.631c0.046,0.024,0.062,0.056,0.108,0.072
			c4.422,2.075,9.445,3.118,15.01,3.118c13.661,0,30.637-6.309,50.738-18.835c2.22-1.4,2.881-4.312,1.503-6.532
			c-1.419-2.216-4.316-2.859-6.517-1.511c-31.526,19.705-48.223,19.135-56.633,15.24c-1.741-0.815-3.166-1.832-4.44-2.943
			c-6.408-5.466-7.734-13.615-7.75-13.683c-0.16-1.259-0.828-2.413-1.878-3.156c-0.813-0.613-1.793-0.919-2.783-0.919
			c-0.269,0-0.529,0.016-0.806,0.064c-2,0.339-3.925,0.485-5.773,0.485c-0.896,0-1.747-0.108-2.591-0.18
			c-0.819-0.062-1.625-0.108-2.392-0.219c-1.18-0.204-2.322-0.511-3.402-0.863c-0.323-0.126-0.645-0.214-0.952-0.321
			c-1.21-0.465-2.36-0.982-3.427-1.581c-0.114-0.061-0.206-0.134-0.322-0.181c-3.136-1.835-5.681-4.322-7.758-7.049
			c-0.429-0.547-0.85-1.114-1.234-1.697c-0.399-0.571-0.79-1.184-1.142-1.771c-5.29-9.046-6.516-19.182-6.562-19.182
			c0.062-0.974,0.429-1.805,1.042-2.557c0.084-0.096,0.177-0.164,0.261-0.26c0.529-0.541,1.304-1.012,2.162-1.437
			c0.345-0.167,0.667-0.339,1.058-0.487c1.15-0.415,2.447-0.768,4.034-0.998c0.054,0,0.084-0.014,0.138-0.014
			c1.839-0.256,3.993-0.385,6.408-0.385c2.384,0,4.991,0.172,7.636,0.415c0.79,0.088,1.503,0.134,2.316,0.214
			c2,0.21,4.085,0.517,6.186,0.839c2.422,0.383,4.885,0.816,7.444,1.311c0.523,0.092,1.066,0.188,1.581,0.307
			c5.749,1.146,11.806,2.565,17.939,4.16c2.238,0.597,4.5,1.17,6.7,1.797c0.237,0.08,0.497,0.158,0.782,0.214
			c10.165,2.879,19.64,5.935,26.848,8.35c0.06,0.018,0.144-0.016,0.192,0c4.929,1.675,9.605,3.346,13.881,4.955
			c2.377,0.968,5.162-0.305,6.063-2.771c0.89-2.352-0.288-4.929-2.564-5.909c1.362-0.23,2.729-0.561,4.075-0.725l1.175-0.156
			c1.082-0.139,2.063-0.646,2.789-1.419l0.873-0.906c2.901-3.108,10.812-10.816,21.123-15.395c0.017,0,0.032-0.014,0.044-0.014
			c-0.688,3.565-1.506,9.065-1.395,14.159l0.032,1.675c0.032,1.98,1.318,3.761,3.218,4.398l1.651,0.539
			c4.132,1.401,7.767,3.605,12.091,6.226c1.852,1.154,3.799,2.347,5.822,3.493c8.043,4.412,18.07,4.971,24.489,3.316
			c1.731,3.17,3.183,5.627,4.437,7.717c0.016,0.016,0.638,1.034,0.638,1.05c0.737,1.196,1.427,2.308,2.031,3.422
			c0.16,0.292,0.261,0.533,0.353,0.747C225.653,90.274,225.492,90.379,225.299,90.447z"/>
		<path d="M69.128,156.028c-1.088-2.393-3.847-3.45-6.262-2.404L2.815,180.285c-2.393,1.074-3.466,3.871-2.409,6.271
			c0.784,1.756,2.501,2.789,4.324,2.789c0.659,0,1.304-0.136,1.932-0.412l60.051-26.67C69.114,161.218,70.18,158.421,69.128,156.028
			z"/>
		<path d="M85.252,169.83c-1.074-2.385-3.857-3.467-6.255-2.4l-40.894,18.161c-2.399,1.059-3.457,3.848-2.415,6.256
			c0.806,1.755,2.515,2.781,4.346,2.781c0.645,0,1.289-0.128,1.917-0.396l40.892-18.146C85.236,175.02,86.31,172.206,85.252,169.83z
			"/>
		<path d="M95.018,183.291L70.823,194.03c-2.4,1.066-3.458,3.863-2.415,6.264c0.806,1.764,2.515,2.789,4.346,2.789
			c0.643,0,1.289-0.119,1.917-0.396l24.195-10.731c2.393-1.074,3.451-3.871,2.407-6.256
			C100.224,183.323,97.418,182.249,95.018,183.291z"/>
	</g>
</g>
</svg>