<?xml version="1.0" encoding="utf-8"?>
<svg version="1.1" id="Layer_1" xmlns="http://www.w3.org/2000/svg" x="0px" y="0px" width="507.43px" height="100.531px" viewBox="118.47 13.575 388.96 85.722" enable-background="new 0 0 507.43 100.531">
  <g>
    <path d="M241.912,16.361v62.846h17.785c21.24,0,34.851-8.582,34.851-31.813c0-22.797-13.265-31.032-33.114-31.032 H241.912z M261.521,27.37c11.702,0,19.59,6.067,19.59,19.677c0,16.21-7.803,20.892-21.149,20.892h-4.699V27.37H261.521z M299.57,15.929v10.141h12.745V15.929H299.57z M299.661,35.519v43.688h12.566V35.519H299.661z M353.315,38.292 c-5.113-2.339-10.053-3.814-17.163-3.814c-12.221,0-18.724,5.202-18.724,13.264c0,8.233,5.289,11.962,12.05,13.521l4.94,1.127 c4.42,0.954,7.195,2.427,7.195,4.594c0,2.688-2.775,4.076-6.762,4.076c-5.027,0-10.921-1.648-14.563-3.728l-3.204,9.014 c4.42,2.341,9.965,4.073,17.683,4.073c11.703,0,18.894-4.593,18.894-14.216c0-6.414-3.983-10.054-9.272-11.614 c-1.476-0.433-4.162-1.215-6.069-1.647c-4.594-0.953-9.188-1.905-9.188-5.374c0-2.599,2.772-3.987,7.281-3.987 c5.027,0,9.883,1.3,13.35,3.207L353.315,38.292z M358.691,35.433v64.704l12.481-1.646V78.687c2.168,0.868,6.242,1.561,8.842,1.561 c15.256,0,20.196-8.756,20.196-24.272c0-13.782-6.847-21.582-17.858-21.582c-4.071,0-8.838,1.386-11.353,3.294v-2.254H358.691z M371.259,69.931V46.094c2.082-1.301,4.335-1.907,6.415-1.907c5.635,0,10.229,2.601,10.229,13.004 c0,11.788-4.939,14.042-11.009,14.042C374.899,71.232,372.819,70.625,371.259,69.931L371.259,69.931z M447.621,50.428v1.388h-5.981 c-11.528,0-19.589,3.901-19.589,14.735c0,6.85,2.253,13.696,14.907,13.696c4.162,0,9.103-1.907,12.136-4.854 c2.774,3.294,6.154,4.335,11.097,4.335c1.041,0,2.772-0.088,3.555-0.263v-9.1c-2.777-0.089-3.294-0.954-3.294-5.201V52.941 c0-13.782-4.596-18.725-17.685-18.725c-7.803,0-14.215,1.821-18.896,4.335l2.514,8.15c3.467-1.822,7.976-3.208,12.915-3.208 C445.627,43.494,447.621,46.787,447.621,50.428L447.621,50.428z M447.621,60.051v8.06c-2.168,2.081-4.942,3.122-7.368,3.122 c-3.468,0-5.462-2.254-5.462-5.374c0-3.469,2.687-5.895,7.022-5.895C443.286,59.964,446.233,59.964,447.621,60.051L447.621,60.051z M404.712,16.101v63.106h12.657V16.101H404.712z M494.951,35.521l-8.669,29.036h-1.647l-9.275-29.036h-13.35l17.597,43.772 c-2.602,9.361-6.066,11.096-12.569,11.096c-1.3,0-2.514-0.086-3.382-0.261l-1.473,9.796c1.994,0.521,4.333,0.607,6.591,0.607 c11.44,0,16.899-5.895,21.235-17.599l17.421-47.412H494.951z" style=""/>
    <path d="M132.789,16.234h-14.498V79h44.533V66.781h-30.035V16.234z M194.72,55.08h11.809v10.975 c-2.178,0.829-6.423,1.655-10.463,1.655c-13.05,0-17.397-6.627-17.397-20.089c0-12.836,4.14-20.404,17.19-20.404 c7.254,0,11.394,2.279,14.808,6.629l9.014-8.287c-5.491-7.866-15.124-10.248-24.132-10.248c-20.304,0-30.966,11.082-30.966,32.206 c0,21.022,9.629,32.414,30.864,32.414c9.733,0,19.262-2.484,24.438-6.107V43.374H194.72V55.08z" style=""/>
  </g>
</svg>